<?xml version="1.0" encoding="UTF-8"?>
<svg id="_레이어_1" data-name="레이어 1" xmlns="http://www.w3.org/2000/svg" viewBox="0 0 810 221">
  <polygon points="314.09 46.74 304.21 85.16 294.32 46.74 263.69 46.74 263.69 102.23 281.45 102.23 281.45 54.06 296.73 102.22 296.73 102.23 296.73 102.23 311.68 102.23 311.69 102.23 311.69 102.22 326.97 54.06 326.97 102.23 344.73 102.23 344.73 46.74 314.09 46.74"/>
  <polygon points="314.09 121.12 304.21 159.54 294.32 121.12 263.69 121.12 263.69 176.62 281.45 176.62 281.45 128.45 296.73 176.61 296.73 176.62 296.73 176.62 311.68 176.62 311.69 176.62 311.69 176.61 326.97 128.45 326.97 176.62 344.73 176.62 344.73 121.12 314.09 121.12"/>
  <polygon points="583.69 46.74 573.8 85.16 563.91 46.74 533.28 46.74 533.28 102.23 551.04 102.23 551.04 54.06 566.32 102.22 566.32 102.23 566.33 102.23 581.28 102.23 581.28 102.23 581.28 102.22 596.56 54.06 596.56 102.23 614.32 102.23 614.32 46.74 583.69 46.74"/>
  <path d="m410.86,102.14l-3.46-8.56h-33.25l-3.46,8.56h-18.89l22.38-55.32h33.2l22.38,55.32h-18.89Zm-32.26-19.56h24.35l-12.18-29.15-12.18,29.15Z"/>
  <path d="m410.86,176.62l-3.46-8.56h-33.25l-3.46,8.56h-18.89l22.38-55.32h33.2l22.38,55.32h-18.89Zm-32.26-19.56h24.35l-12.18-29.15-12.18,29.15Z"/>
  <path d="m472.05,46.48h-35.71v55.57h35.71c9.78,0,31.47-4.19,31.47-27.78s-21.69-27.78-31.47-27.78Zm-2.58,44.53h-15.76v-33.49h15.76c9.2,0,16.66,7.49,16.71,16.75-.05,9.26-7.51,16.75-16.71,16.75Z"/>
  <path d="m778.84,46.48h-35.71v55.57h35.71c9.78,0,31.47-4.19,31.47-27.78s-21.69-27.78-31.47-27.78Zm-2.58,44.53h-15.76v-33.49h15.76c9.2,0,16.66,7.49,16.71,16.75-.05,9.26-7.51,16.75-16.71,16.75Z"/>
  <polygon points="659.68 57.62 659.68 46.67 624 46.67 624 57.62 632.87 57.62 632.87 91.04 624 91.04 624 101.99 659.68 101.99 659.68 91.04 650.8 91.04 650.8 57.62 659.68 57.62"/>
  <polygon points="716.13 46.48 716.13 84.43 685.35 46.48 667.98 46.48 667.98 101.99 685.35 101.99 685.35 64.61 716.13 101.99 733.49 101.99 733.49 46.48 716.13 46.48"/>
  <polygon points="618.52 132.25 618.52 121.3 582.84 121.3 582.84 132.25 591.71 132.25 591.71 165.67 582.84 165.67 582.84 176.62 618.52 176.62 618.52 165.67 609.65 165.67 609.65 132.25 618.52 132.25"/>
  <polygon points="674.97 121.11 674.97 159.06 644.2 121.11 626.83 121.11 626.83 176.62 644.2 176.62 644.2 139.24 674.97 176.62 692.34 176.62 692.34 121.11 674.97 121.11"/>
  <polygon points="766.72 165.61 719.34 165.61 719.34 154.47 763.89 154.47 763.89 143.52 719.34 143.52 719.34 132 766.16 132 766.16 121.05 701.97 121.05 701.97 121.24 701.97 132 701.97 165.61 701.97 176.56 701.97 176.75 719.34 176.75 719.34 176.56 766.72 176.56 766.72 165.61"/>
  <polygon points="554.71 121.24 554.71 143.05 525.07 143.05 525.07 121.24 507.13 121.24 507.13 176.56 525.07 176.56 525.07 154.75 554.71 154.75 554.71 176.56 572.64 176.56 572.64 121.24 554.71 121.24"/>
  <path d="m480.56,154.56c-2.22,7.14-8.34,12.27-15.53,12.27-9.07,0-16.42-8.16-16.42-18.22s7.35-18.22,16.42-18.22c7.19,0,13.31,5.13,15.53,12.27h18.96c-3.3-13.36-17.48-23.41-34.49-23.41-19.45,0-35.21,13.14-35.21,29.36s15.76,29.36,35.21,29.36c17,0,31.19-10.05,34.49-23.41h-18.96Z"/>
  <path d="m188.45,132.98v-41.56h-31.9l-.09-.09h-9.54l-5.47-5.01v-12.09l-7.36-6.73h48.51l6.05-5.53V24.95h-19.91l-6.13,5.6h-56.55l-6.23-5.7h-19.56L52.91,0,7.04,41.95v20.27L.04,68.63v4.11l-.04.04v14.34l1.3,1.19v.12l4.74,4.34.07-.06.12.11-6.23,5.7v18.16l7.4,6.77v11.16h55.06v15.3l4.74,4.34,68.58-62.73,3.21,2.94-24.94,22.81v11.01l6.83,6.25h26.2v.09h32.21l4.79,4.39-56.18,51.38-3.29-3.01,21.14-19.33v-15.04h-27.4l-5.55,5.07H43.2l-5.55-5.07H.76v16.23l5.15,4.71v18.6l6.23,5.69h51.21l6.23-5.69h49.43l.03-.03,30.56,27.95,38.98-35.65v-25.23l5.74-5.25v-15.99l-5.85-5.35Zm-123.83-22.95l.03-18.61H7.56v-.05S78.95,26.07,78.95,26.07l2.83,2.59-23.83,21.8v10.88l6.75,6.18h46.41l-46.49,42.52Z"/>
</svg>